<svg xmlns="http://www.w3.org/2000/svg" width="75.134" height="97.89" viewBox="0 0 75.134 97.89">
    <defs>
        <style>
            .cls-1{fill:#fccf3f}.cls-2{fill:#efc03c}.cls-3{fill:#fc4e51}.cls-4{fill:#ea3942}.cls-5{fill:#f3e8d7}.cls-6{fill:#e5d8c6}.cls-7{fill:#efa335}.cls-8{fill:#fd8f31}
        </style>
    </defs>
    <g id="fries" transform="translate(-.001)">
        <path id="Path_3890" d="M114.62 68.019l-3.645.355a2.377 2.377 0 0 1-2.6-1.973l-7.964-55.007a2.746 2.746 0 0 1 2.257-3.239l5.7-.639a2.81 2.81 0 0 1 2.979 2.66l5.345 55.41a2.254 2.254 0 0 1-2.072 2.432zm0 0" class="cls-1" data-name="Path 3890" transform="translate(-81.188 -6.067)"/>
        <path id="Path_3891" d="M72.341 94.645l-3.621.18a2.4 2.4 0 0 1-2.52-2.05l-6.37-54.152a2.612 2.612 0 0 1 2.327-3.043l5.659-.323a2.852 2.852 0 0 1 2.874 2.75l3.769 54.354a2.166 2.166 0 0 1-2.118 2.283zm0 0" class="cls-2" data-name="Path 3891" transform="translate(-48.373 -28.513)"/>
        <path id="Path_3892" d="M24.619 120.907l-3.549.409a2.432 2.432 0 0 1-2.654-1.848L7.561 66.932a2.527 2.527 0 0 1 2.021-3.141l5.522-.731a2.847 2.847 0 0 1 3.056 2.478l8.35 52.992a2.081 2.081 0 0 1-1.892 2.377zm0 0" class="cls-1" data-name="Path 3892" transform="translate(-6.064 -50.986)"/>
        <path id="Path_3893" d="M209.31 68.019l3.645.355a2.377 2.377 0 0 0 2.6-1.973l7.961-55.001a2.745 2.745 0 0 0-2.257-3.239l-5.7-.639a2.81 2.81 0 0 0-2.978 2.66l-5.345 55.41a2.253 2.253 0 0 0 2.072 2.432zm0 0" class="cls-1" data-name="Path 3893" transform="translate(-167.607 -6.067)"/>
        <path id="Path_3894" d="M258.639 94.645l3.621.18a2.4 2.4 0 0 0 2.52-2.05l6.371-54.151a2.612 2.612 0 0 0-2.327-3.043l-5.66-.323a2.852 2.852 0 0 0-2.873 2.75l-3.769 54.354a2.166 2.166 0 0 0 2.118 2.283zm0 0" class="cls-2" data-name="Path 3894" transform="translate(-207.472 -28.513)"/>
        <path id="Path_3895" d="M287.818 120.907l3.55.409a2.431 2.431 0 0 0 2.653-1.848l10.855-52.535a2.527 2.527 0 0 0-2.02-3.142l-5.522-.731a2.848 2.848 0 0 0-3.056 2.479l-8.351 52.991a2.081 2.081 0 0 0 1.892 2.377zm0 0" class="cls-1" data-name="Path 3895" transform="translate(-231.239 -50.986)"/>
        <path id="Path_3896" d="M172.044 105.982h-3.618a2.272 2.272 0 0 1-2.32-2.152l-1.376-53.854a2.7 2.7 0 0 1 2.595-2.875h5.656a2.713 2.713 0 0 1 2.6 2.875l-1.225 53.855a2.264 2.264 0 0 1-2.312 2.151zm0 0" class="cls-2" data-name="Path 3896" transform="translate(-133.234 -38.095)"/>
        <path id="Path_3897" d="M79.137 153.537l-3.323 1.363a2.332 2.332 0 0 1-2.994-1.072L49.953 105.71a2.6 2.6 0 0 1 1.22-3.584l5.174-2.164a2.757 2.757 0 0 1 3.537 1.6L80.4 150.718a2.169 2.169 0 0 1-1.261 2.819zm0 0" class="cls-1" data-name="Path 3897" transform="translate(-40.172 -80.696)"/>
        <path id="Path_3898" d="M155.744 180.041l-3.587.166a2.331 2.331 0 0 1-2.459-2.017l-5.341-53.006a2.6 2.6 0 0 1 2.355-2.965l5.6-.3a2.758 2.758 0 0 1 2.792 2.7l2.777 53.192a2.169 2.169 0 0 1-2.137 2.231zm0 0" class="cls-2" data-name="Path 3898" transform="translate(-116.744 -98.609)"/>
        <path id="Path_3899" d="M276.332 147.872l3.485.156a2.315 2.315 0 0 0 2.435-1.907l6.321-49.921a2.4 2.4 0 0 0-2.218-2.781l-5.418-.278a2.71 2.71 0 0 0-2.763 2.53l-3.87 50.094a2.019 2.019 0 0 0 2.028 2.109zm0 0" class="cls-2" data-name="Path 3899" transform="translate(-221.855 -75.329)"/>
        <path id="Path_3900" d="M206.094 180.684l3.786.6a2.432 2.432 0 0 0 2.775-1.991l8.89-51.932a2.43 2.43 0 0 0-2.018-2.812l-5.159-.813a2.432 2.432 0 0 0-2.786 2.055l-7.517 52.149a2.431 2.431 0 0 0 2.028 2.748zm0 0" class="cls-1" data-name="Path 3900" transform="translate(-165.029 -100.051)"/>
        <path id="Path_3901" d="M61.256 175.262a1.825 1.825 0 0 0-1.7 1.179 17.054 17.054 0 0 1-31.843 0 1.825 1.825 0 0 0-1.7-1.179H9.319a1.82 1.82 0 0 0-1.792 2.128l10.224 59.31a1.819 1.819 0 0 0 1.793 1.51h48.178a1.819 1.819 0 0 0 1.793-1.51l10.224-59.31a1.819 1.819 0 0 0-1.793-2.128zm0 0" class="cls-3" data-name="Path 3901" transform="translate(-6.065 -141.753)"/>
        <path id="Path_3902" d="M284.161 175.262h-11.476a1.819 1.819 0 0 1 1.792 2.129L264.253 236.7a1.819 1.819 0 0 1-1.792 1.509h11.476a1.819 1.819 0 0 0 1.793-1.509l10.224-59.31a1.819 1.819 0 0 0-1.793-2.128zm0 0" class="cls-4" data-name="Path 3902" transform="translate(-212.28 -141.753)"/>
        <path id="Path_3903" d="M95.146 330.027H32.4l1.985 11.518H93.16zm0 0" class="cls-5" data-name="Path 3903" transform="translate(-26.207 -266.928)"/>
        <path id="Path_3904" d="M303.627 330.027H292.15l-1.986 11.518h11.477zm0 0" class="cls-6" data-name="Path 3904" transform="translate(-234.687 -266.928)"/>
        <path id="Path_3905" d="M148.209 298.715a14.946 14.946 0 1 1-14.947-14.946 14.946 14.946 0 0 1 14.947 14.946zm0 0" class="cls-7" data-name="Path 3905" transform="translate(-95.695 -229.515)"/>
        <path id="Path_3906" d="M142.691 292.207a14.945 14.945 0 0 1-21.065 17.638 14.946 14.946 0 1 0 21.065-17.638zm0 0" class="cls-8" data-name="Path 3906" transform="translate(-98.371 -236.339)"/>
        <path id="Path_3907" d="M127.2 276.27a16.38 16.38 0 1 0 16.38 16.38 16.4 16.4 0 0 0-16.38-16.38zm0 29.892a13.512 13.512 0 1 1 13.513-13.512 13.527 13.527 0 0 1-13.513 13.512zm0 0" data-name="Path 3907" transform="translate(-89.629 -223.449)"/>
        <path id="Path_3908" d="M71.881 32.076h-.112l3.273-15.839a4.217 4.217 0 0 0-.656-3.292 3.739 3.739 0 0 0-2.586-1.561l-5.522-.731a3.871 3.871 0 0 0-1.229.037l.049-.412a4.306 4.306 0 0 0-.943-3.267 3.811 3.811 0 0 0-2.726-1.375L57.344 5.4a4.45 4.45 0 0 0-.868-3.223A3.9 3.9 0 0 0 53.812.664l-5.7-.639a3.949 3.949 0 0 0-2.946.882 4.519 4.519 0 0 0-1.62 3.065l-.516 5.373a4.061 4.061 0 0 0-.465-.572 3.919 3.919 0 0 0-2.819-1.2h-5.655a3.87 3.87 0 0 0-2.1.619l-.407-4.219A4.516 4.516 0 0 0 29.967.907 3.95 3.95 0 0 0 27.02.025l-5.7.639a3.9 3.9 0 0 0-2.661 1.516 4.45 4.45 0 0 0-.868 3.22l-4.091.236a3.812 3.812 0 0 0-2.726 1.375 4.306 4.306 0 0 0-.943 3.267l.049.412a3.87 3.87 0 0 0-1.229-.037l-5.522.731a3.741 3.741 0 0 0-2.58 1.561 4.216 4.216 0 0 0-.656 3.292l3.273 15.839h-.112a3.252 3.252 0 0 0-3.206 3.805l10.224 59.31a3.247 3.247 0 0 0 3.206 2.7h48.179a3.245 3.245 0 0 0 3.205-2.7l10.225-59.31a3.252 3.252 0 0 0-3.206-3.805zm-7.246-17.825a1.319 1.319 0 0 1 1.272-.755l5.522.73a.889.889 0 0 1 .619.379 1.346 1.346 0 0 1 .185 1.051l-3.392 16.419h-2.1l1.4-11.025a3.982 3.982 0 0 0-.873-3.05 3.723 3.723 0 0 0-2.695-1.34l-.221-.011zm-1.956 5.179l1.748.09a.877.877 0 0 1 .642.316 1.1 1.1 0 0 1 .226.854l-1.441 11.386h-6.7l.775-4.527a3.833 3.833 0 0 0-.522-2.677l.341-4.421a1.356 1.356 0 0 1 .6-1.022 1.1 1.1 0 0 1 .663-.185l3.667.187zm-7.12-11.254h.057l5.654.324a.969.969 0 0 1 .693.355 1.433 1.433 0 0 1 .291 1.088l-.44 3.745-.33 2.809-2.327-.119a4.143 4.143 0 0 0-4.267 3.851l-.22 2.84-1.341-.211.92-13.265a1.444 1.444 0 0 1 1.311-1.418zM55.1 27.064l-.883 5.157a3.245 3.245 0 0 0-2.069 1.952 15.6 15.6 0 0 1-5.642 7.21c-.276.193-.556.373-.842.547l2.306-15.99a1 1 0 0 1 1.143-.843l2.446.385 2.71.427a1 1 0 0 1 .828 1.154zM43.2 37.423l3.2-33.175a1.636 1.636 0 0 1 .572-1.114 1.1 1.1 0 0 1 .82-.259l5.7.639a1.046 1.046 0 0 1 .713.419 1.578 1.578 0 0 1 .284 1.19l-.05.345-.071.024-.089.031c-.09.031-.178.064-.265.1l-.067.029a4.051 4.051 0 0 0-.491.26l-.042.026c-.1.063-.194.129-.287.2l-.025.018c-.05.038-.1.078-.146.118l-.031.027a4.51 4.51 0 0 0-.238.221l-.058.058a3.458 3.458 0 0 0-.236.265l-.107.135-.078.107-.1.143a1.52 1.52 0 0 0-.1.168c-.021.035-.041.07-.06.106-.036.064-.07.129-.1.2-.015.031-.031.063-.045.1a6.34 6.34 0 0 0-.09.205l-.034.084a5.875 5.875 0 0 0-.111.33 3.777 3.777 0 0 0-.066.249c0 .018-.009.036-.013.055-.022.1-.04.2-.055.3 0 .022-.007.046-.01.068a5.08 5.08 0 0 0-.034.313l-.9 13.014-.924-.145a3.864 3.864 0 0 0-4.427 3.267l-1.977 13.672zm-9.874-26.646a1.058 1.058 0 0 1 .765-.337h5.656a1.066 1.066 0 0 1 .768.338 1.484 1.484 0 0 1 .4 1.069l-.565 24.8-.559-10.714a4.354 4.354 0 0 0-1.316-2.917 3.957 3.957 0 0 0-2.984-1.137l-2.3.122-.049-1.882-.211-8.277a1.476 1.476 0 0 1 .4-1.067zm2.317 13.969a1.15 1.15 0 0 1 .839.335 1.492 1.492 0 0 1 .446 1l.945 18.1c-.1 0-.2.005-.306.005a15.535 15.535 0 0 1-6.9-1.6l-1.628-16.155a1.376 1.376 0 0 1 .3-1.034.989.989 0 0 1 .705-.355zM20.928 3.933a1.046 1.046 0 0 1 .714-.419l5.7-.639a1.1 1.1 0 0 1 .821.259 1.635 1.635 0 0 1 .571 1.114l1.543 16 .049 1.91-.433.022a3.84 3.84 0 0 0-2.73 1.353 4.257 4.257 0 0 0-.975 3.188l.789 7.824L25.2 30.28 23.747 9.4a4.02 4.02 0 0 0-.034-.312c0-.023-.007-.046-.01-.069-.016-.1-.034-.2-.055-.3l-.012-.05a5.004 5.004 0 0 0-.067-.255l-.018-.06a4.097 4.097 0 0 0-.094-.27l-.028-.072a4.73 4.73 0 0 0-.1-.231l-.02-.043a3.724 3.724 0 0 0-.128-.243l-.044-.078a5.088 5.088 0 0 0-.142-.226l-.042-.06q-.062-.09-.128-.175l-.055-.071a6.38 6.38 0 0 0-.169-.2l-.06-.064a2.832 2.832 0 0 0-.155-.155l-.046-.046a4.813 4.813 0 0 0-.2-.175l-.063-.051a4.962 4.962 0 0 0-.218-.164l-.028-.018c-.072-.049-.146-.1-.222-.14l-.047-.028a3.445 3.445 0 0 0-.255-.135l-.03-.014a3.636 3.636 0 0 0-.575-.219h-.01l-.051-.348a1.581 1.581 0 0 1 .284-1.19zm-7.756 4.921a.962.962 0 0 1 .693-.355l5.656-.323h.025a1.44 1.44 0 0 1 1.341 1.418l.862 12.426-.712-1.706a4.354 4.354 0 0 0-2.222-2.3 4.154 4.154 0 0 0-.377-.149l-.022-.008a3.054 3.054 0 0 0-.369-.1l-.037-.009a3.799 3.799 0 0 0-.364-.064l-.046-.006a3.938 3.938 0 0 0-.359-.026h-.11c-.063 0-.126.006-.19.009s-.108 0-.162.008c-.081.007-.161.021-.241.033-.05.008-.1.013-.151.022-.087.018-.174.041-.261.064-.041.011-.083.019-.125.031a3.951 3.951 0 0 0-.379.136l-1.716.718-.259-2.2-.767-6.53a1.438 1.438 0 0 1 .292-1.089zm-1.618 13.9l.846-.354.854-.356 3.471-1.452a1.143 1.143 0 0 1 .9.033 1.5 1.5 0 0 1 .758.8l7.141 17.111a15.571 15.571 0 0 1-2.546-4.356 3.238 3.238 0 0 0-3.04-2.1h-5.22l-3.64-7.68a1.376 1.376 0 0 1-.066-1.075 1.062 1.062 0 0 1 .119-.228.957.957 0 0 1 .425-.344zM2.9 15.657a1.346 1.346 0 0 1 .184-1.051.892.892 0 0 1 .62-.379l5.524-.727a1.326 1.326 0 0 1 1.272.756l.3 2.574.351 2.986-.706.3A3.833 3.833 0 0 0 8.333 22.3a4.25 4.25 0 0 0 .155 3.33l3.063 6.446H6.294zm69.361 19.737l-4.529 26.271h-9.378a1.434 1.434 0 1 0 0 2.868h8.884l-1.491 8.65h-7.2a1.434 1.434 0 1 0 0 2.868h6.709L62.037 94.7a.385.385 0 0 1-.38.32H13.479a.385.385 0 0 1-.38-.32L9.883 76.05h6.709a1.434 1.434 0 1 0 0-2.868h-7.2L7.9 64.533h8.928a1.434 1.434 0 1 0 0-2.868H7.4L2.874 35.394a.386.386 0 0 1 .38-.451h16.69a.391.391 0 0 1 .363.258 18.49 18.49 0 0 0 17.26 11.862c.2 0 .394 0 .594-.011l.282-.011.248-.014a18.446 18.446 0 0 0 2.58-.337h.007A18.5 18.5 0 0 0 54.827 35.2a.392.392 0 0 1 .363-.258h16.692a.385.385 0 0 1 .379.451zm0 0" data-name="Path 3908"/>
    </g>
</svg>
