<svg xmlns="http://www.w3.org/2000/svg" width="69.558" height="115.933" viewBox="0 0 69.558 115.933">
    <defs>
        <style>
            .cls-1{fill:#e9686a}.cls-2{fill:#fdbd40}.cls-3{fill:#f98c96}.cls-4{fill:#fff}.cls-5{fill:#e97424}.cls-6{fill:#ffd782}
        </style>
    </defs>
    <g id="Group_1403" data-name="Group 1403" transform="translate(-1049 -1455)">
        <path id="Path_3853" d="M178.513 119.467l-5.8-1.932c4.268 0 7.729-1.528 7.729-5.8a7.729 7.729 0 0 0-7.729-7.729H149.53a7.729 7.729 0 0 0-7.729 7.729c0 4.268 3.461 9.661 7.729 9.661l-5.8-1.932a7.729 7.729 0 1 0 0 15.457h34.779a7.729 7.729 0 0 0 0-15.457z" class="cls-1" data-name="Path 3853" transform="translate(922.656 1376.111)"/>
        <g id="Group_1318" data-name="Group 1318" transform="translate(1050.932 1522.628)">
            <path id="Path_3854" d="M363.869 281.942v-1.932l-3.864 23.19z" class="cls-2" data-name="Path 3854" transform="translate(-298.176 -280.01)"/>
            <path id="Path_3855" d="M104.005 280.01l19.322 11.59 3.864 34.779h-15.457z" class="cls-2" data-name="Path 3855" transform="translate(-104.005 -280.01)"/>
        </g>
        <g id="Group_1319" data-name="Group 1319" transform="translate(1050.932 1456.933)">
            <path id="Path_3856" d="M199.244 10.694l-6.726 13.454a4.867 4.867 0 0 0 4.353 7.043h13.452a4.867 4.867 0 0 0 4.353-7.043l-6.726-13.454a4.867 4.867 0 0 0-8.706 0z" class="cls-3" data-name="Path 3856" transform="translate(-170.75 -8.003)"/>
            <path id="Path_3857" d="M161.97 232.01h-50.236a7.729 7.729 0 0 0-7.729 7.729v3.861l19.322 11.6 13.525-11.6 13.525 11.6 19.323-11.6v-3.864a7.729 7.729 0 0 0-7.73-7.726z" class="cls-3" data-name="Path 3857" transform="translate(-104.005 -177.907)"/>
        </g>
        <g id="Group_1320" data-name="Group 1320" transform="translate(1070.253 1485.93)">
            <path id="Path_3858" d="M209.327 137.711a2.037 2.037 0 0 1-.531-.073c-.133-.041-13.562-3.864-23.033-5.762a1.932 1.932 0 0 1 .757-3.787c9.626 1.932 23.2 5.8 23.339 5.831a1.932 1.932 0 0 1-.531 3.791z" class="cls-4" data-name="Path 3858" transform="translate(-184.208 -128.063)"/>
            <path id="Path_3859" d="M207.188 177.668a1.931 1.931 0 0 1-.508-.068l-21.254-5.8a1.933 1.933 0 1 1 1.016-3.729l21.254 5.8a1.932 1.932 0 0 1-.508 3.8z" class="cls-4" data-name="Path 3859" transform="translate(-184.001 -158.359)"/>
        </g>
        <path id="Path_3860" d="M283.869 291.6l-3.864 34.779h15.457l7.729-46.372z" class="cls-2" data-name="Path 3860" transform="translate(813.435 1242.618)"/>
        <path id="Path_3861" d="M184.005 291.6l13.525-11.59 13.525 11.59-3.864 34.779h-19.322z" class="cls-5" data-name="Path 3861" transform="translate(886.249 1242.618)"/>
        <g id="Group_1325" data-name="Group 1325" transform="translate(1060.593 1516.832)">
            <g id="Group_1321" data-name="Group 1321">
                <path id="SVGCleanerId_0" d="M144.005 256.01h3.864v3.864h-3.864z" class="cls-6" transform="translate(-144.005 -256.01)"/>
            </g>
            <g id="Group_1322" data-name="Group 1322" transform="translate(7.729 3.864)">
                <path id="SVGCleanerId_1" d="M176.005 272.01h3.864v3.864h-3.864z" class="cls-6" transform="translate(-176.005 -272.01)"/>
            </g>
            <g id="Group_1323" data-name="Group 1323" transform="translate(30.915)">
                <path id="SVGCleanerId_2" d="M272.005 256.01h3.864v3.864h-3.864z" class="cls-6" transform="translate(-272.005 -256.01)"/>
            </g>
            <g id="Group_1324" data-name="Group 1324" transform="translate(38.643 3.864)">
                <path id="SVGCleanerId_3" d="M304.005 272.01h3.864v3.864h-3.864z" class="cls-6" transform="translate(-304.005 -272.01)"/>
            </g>
        </g>
        <path id="Path_3862" d="M155.9 54.1h-.05a9.56 9.56 0 0 0 1.982-5.8 9.678 9.678 0 0 0-8.589-9.6 6.929 6.929 0 0 0 2.792-5.854 9.643 9.643 0 0 0-8.467-9.541 6.743 6.743 0 0 0 .019-6.1L136.865 3.76a6.8 6.8 0 0 0-12.161 0l-6.726 13.452a6.743 6.743 0 0 0 .019 6.1 9.643 9.643 0 0 0-8.467 9.541 12.855 12.855 0 0 0 1.638 6.055 9.678 9.678 0 0 0-7.435 9.4 9.56 9.56 0 0 0 1.982 5.8h-.05a9.672 9.672 0 0 0-9.661 9.661v5.8a1.886 1.886 0 0 0 .031.346l7.729 44.411a1.932 1.932 0 0 0 1.9 1.615H155.9a1.932 1.932 0 0 0 1.905-1.615l7.729-44.411a1.885 1.885 0 0 0 .027-.346v-5.8A9.673 9.673 0 0 0 155.9 54.1zm-36.611 25.92l11.493-9.85 11.493 9.854-3.571 32.041h-15.842zm2.143-61.086L128.16 5.49a2.933 2.933 0 0 1 5.248 0l6.726 13.448a2.935 2.935 0 0 1-2.624 4.251h-13.452a2.935 2.935 0 0 1-2.624-4.251zM107.6 48.306a5.8 5.8 0 0 1 5.5-5.8l1.9.632a7.759 7.759 0 0 0 3.824 1.264l21.111 5.758a1.933 1.933 0 0 0 1.016-3.729l-21.217-5.8-2.956-.985a9.352 9.352 0 0 1-3.385-6.8 5.8 5.8 0 0 1 5.8-5.8h23.186a5.8 5.8 0 0 1 5.8 5.8c0 .943-.012 3.772-5.553 3.864-1.944-.549-14.167-3.974-23.051-5.75a1.932 1.932 0 0 0-.757 3.787c9.45 1.892 22.832 5.7 23.028 5.76l5.723 1.907a1.933 1.933 0 0 0 .611.093 5.8 5.8 0 1 1 0 11.593h-34.785a5.8 5.8 0 0 1-5.8-5.8zm-7.731 15.458a5.8 5.8 0 0 1 5.8-5.8H155.9a5.8 5.8 0 0 1 5.8 5.8v2.771l-17.2 10.312-12.466-10.685a1.932 1.932 0 0 0-2.512 0l-12.456 10.685-17.2-10.312zm7.433 48.3l-6.772-40.63 14.914 8.942 3.52 31.688zm46.963 0H142.6l3.52-31.688 14.914-8.948z" data-name="Path 3862" transform="translate(952.995 1455)"/>
        <path id="Path_3863" d="M218.067 67.874a1.932 1.932 0 1 0 0-3.864h-.019a1.932 1.932 0 1 0 .019 3.864z" data-name="Path 3863" transform="translate(861.887 1406.45)"/>
        <path id="Path_3864" d="M250.067 75.874a1.932 1.932 0 1 0 0-3.864h-.019a1.932 1.932 0 1 0 .019 3.864z" data-name="Path 3864" transform="translate(837.615 1400.382)"/>
        <path id="Path_3865" d="M234.067 51.874a1.932 1.932 0 1 0 0-3.864h-.019a1.932 1.932 0 1 0 .019 3.864z" data-name="Path 3865" transform="translate(849.751 1418.585)"/>
        <path id="SVGCleanerId_0_1_" d="M144.005 256.01h3.864v3.864h-3.864z" transform="translate(916.588 1260.822)"/>
        <path id="SVGCleanerId_1_1_" d="M176.005 272.01h3.864v3.864h-3.864z" transform="translate(892.317 1248.686)"/>
        <path id="SVGCleanerId_2_1_" d="M272.005 256.01h3.864v3.864h-3.864z" transform="translate(819.503 1260.822)"/>
        <path id="SVGCleanerId_3_1_" d="M304.005 272.01h3.864v3.864h-3.864z" transform="translate(795.231 1248.686)"/>
    </g>
</svg>
